<svg width="800" height="600" xmlns="http://www.w3.org/2000/svg">
  <rect width="800" height="600" fill="#f8f9fa"/>
  <rect x="50" y="50" width="700" height="500" fill="#e9ecef" stroke="#6c757d" stroke-width="2" rx="10"/>
  <text x="400" y="200" text-anchor="middle" font-family="Arial, sans-serif" font-size="24" fill="#495057">
    BW Chao1 Estimator Map
  </text>
  <text x="400" y="250" text-anchor="middle" font-family="Arial, sans-serif" font-size="16" fill="#6c757d">
    Botswana Expected Species Richness
  </text>
  <text x="400" y="300" text-anchor="middle" font-family="Arial, sans-serif" font-size="14" fill="#868e96">
    Placeholder for Chao1 estimator visualization
  </text>
  <text x="400" y="350" text-anchor="middle" font-family="Arial, sans-serif" font-size="12" fill="#adb5bd">
    Replace with actual Chao1 analysis map
  </text>
  <!-- Simple mock map outline with gradient -->
  <defs>
    <linearGradient id="chao1Gradient" x1="0%" y1="0%" x2="100%" y2="100%">
      <stop offset="0%" style="stop-color:#6f42c1;stop-opacity:0.3" />
      <stop offset="50%" style="stop-color:#e83e8c;stop-opacity:0.5" />
      <stop offset="100%" style="stop-color:#fd7e14;stop-opacity:0.7" />
    </linearGradient>
  </defs>
  <path d="M 200 400 L 300 380 L 450 390 L 550 410 L 600 450 L 580 480 L 520 490 L 400 485 L 280 475 L 220 450 Z" 
        fill="url(#chao1Gradient)" stroke="#6f42c1" stroke-width="2"/>
  <!-- Legend -->
  <rect x="620" y="400" width="120" height="80" fill="white" stroke="#6c757d" rx="5"/>
  <text x="680" y="420" text-anchor="middle" font-family="Arial, sans-serif" font-size="10" fill="#495057">Chao1 Values</text>
  <rect x="630" y="430" width="15" height="8" fill="#6f42c1"/>
  <text x="650" y="437" font-family="Arial, sans-serif" font-size="8" fill="#495057">High</text>
  <rect x="630" y="445" width="15" height="8" fill="#e83e8c"/>
  <text x="650" y="452" font-family="Arial, sans-serif" font-size="8" fill="#495057">Medium</text>
  <rect x="630" y="460" width="15" height="8" fill="#fd7e14"/>
  <text x="650" y="467" font-family="Arial, sans-serif" font-size="8" fill="#495057">Low</text>
</svg>